<svg width="17" height="17" viewBox="0 0 17 17" fill="none" xmlns="http://www.w3.org/2000/svg">
<path d="M12.6325 3.39795H4.63249C3.43587 3.39795 2.46582 4.368 2.46582 5.56462V12.2313C2.46582 13.4279 3.43587 14.3979 4.63249 14.3979H12.6325C13.8291 14.3979 14.7992 13.4279 14.7992 12.2313V5.56462C14.7992 4.368 13.8291 3.39795 12.6325 3.39795Z" stroke="white" stroke-width="1.5"/>
<path d="M5.13281 2.06445V4.39779" stroke="white" stroke-width="1.5" stroke-linecap="round"/>
<path d="M3.13281 6.39795H14.1328" stroke="white" stroke-width="1.5" stroke-linecap="round"/>
<path d="M12.4658 2.06445V4.39779" stroke="white" stroke-width="1.5" stroke-linecap="round"/>
<path d="M6.13281 9.56445C6.40895 9.56445 6.63281 9.3406 6.63281 9.06445C6.63281 8.78831 6.40895 8.56445 6.13281 8.56445C5.85667 8.56445 5.63281 8.78831 5.63281 9.06445C5.63281 9.3406 5.85667 9.56445 6.13281 9.56445Z" fill="white"/>
<path d="M8.7998 9.56445C9.07595 9.56445 9.29981 9.3406 9.29981 9.06445C9.29981 8.78831 9.07595 8.56445 8.7998 8.56445C8.52366 8.56445 8.2998 8.78831 8.2998 9.06445C8.2998 9.3406 8.52366 9.56445 8.7998 9.56445Z" fill="white"/>
<path d="M11.4658 9.56445C11.742 9.56445 11.9658 9.3406 11.9658 9.06445C11.9658 8.78831 11.742 8.56445 11.4658 8.56445C11.1897 8.56445 10.9658 8.78831 10.9658 9.06445C10.9658 9.3406 11.1897 9.56445 11.4658 9.56445Z" fill="white"/>
<path d="M6.13281 12.2312C6.40895 12.2312 6.63281 12.0073 6.63281 11.7312C6.63281 11.4551 6.40895 11.2312 6.13281 11.2312C5.85667 11.2312 5.63281 11.4551 5.63281 11.7312C5.63281 12.0073 5.85667 12.2312 6.13281 12.2312Z" fill="white"/>
<path d="M8.7998 12.2312C9.07595 12.2312 9.29981 12.0073 9.29981 11.7312C9.29981 11.4551 9.07595 11.2312 8.7998 11.2312C8.52366 11.2312 8.2998 11.4551 8.2998 11.7312C8.2998 12.0073 8.52366 12.2312 8.7998 12.2312Z" fill="white"/>
<path d="M11.4658 12.2312C11.742 12.2312 11.9658 12.0073 11.9658 11.7312C11.9658 11.4551 11.742 11.2312 11.4658 11.2312C11.1897 11.2312 10.9658 11.4551 10.9658 11.7312C10.9658 12.0073 11.1897 12.2312 11.4658 12.2312Z" fill="white"/>
</svg>
