<svg width="14" height="14" viewBox="0 0 14 14" fill="none" xmlns="http://www.w3.org/2000/svg">
<path d="M8.264 3.83293C8.264 4.80518 7.47582 5.59334 6.50358 5.59334C5.53134 5.59334 4.74316 4.80518 4.74316 3.83293C4.74316 2.86067 5.53134 2.07251 6.50358 2.07251C7.47582 2.07251 8.264 2.86067 8.264 3.83293Z" stroke="white" stroke-width="1.5"/>
<path d="M9.889 9.79134C9.889 10.374 9.55907 10.9398 8.94856 11.3758C8.33886 11.8114 7.47571 12.0934 6.50358 12.0934C5.53145 12.0934 4.66831 11.8114 4.05859 11.3758C3.4481 10.9398 3.11816 10.374 3.11816 9.79134C3.11816 9.20872 3.4481 8.6429 4.05859 8.20686C4.66831 7.7713 5.53145 7.48926 6.50358 7.48926C7.47571 7.48926 8.33886 7.7713 8.94856 8.20686C9.55907 8.6429 9.889 9.20872 9.889 9.79134Z" stroke="white" stroke-width="1.5"/>
</svg>
