<svg width="20" height="20" viewBox="0 0 20 20" fill="none" xmlns="http://www.w3.org/2000/svg">
<path d="M5.93978 4.32487C5.93978 3.55973 5.31951 2.93945 4.55436 2.93945C3.78922 2.93945 3.16895 3.55973 3.16895 4.32487C3.16895 5.09001 3.78922 5.71029 4.55436 5.71029C5.31951 5.71029 5.93978 5.09001 5.93978 4.32487Z" stroke="white" stroke-width="1.5"/>
<path d="M11.0853 9.86662C11.0853 9.10147 10.465 8.4812 9.69987 8.4812C8.93473 8.4812 8.31445 9.10147 8.31445 9.86662C8.31445 10.6318 8.93473 11.252 9.69987 11.252C10.465 11.252 11.0853 10.6318 11.0853 9.86662Z" stroke="white" stroke-width="1.5"/>
<path fill-rule="evenodd" clip-rule="evenodd" d="M4.55371 7.68945C4.22579 7.68945 3.95996 7.95529 3.95996 8.2832V16.5957C3.95996 16.9236 4.22579 17.1895 4.55371 17.1895C4.88163 17.1895 5.14746 16.9236 5.14746 16.5957V8.2832C5.14746 7.95529 4.88163 7.68945 4.55371 7.68945Z" fill="white"/>
<path fill-rule="evenodd" clip-rule="evenodd" d="M14.8457 2.93945C14.5178 2.93945 14.252 3.20529 14.252 3.5332V11.8457C14.252 12.1736 14.5178 12.4395 14.8457 12.4395C15.1736 12.4395 15.4395 12.1736 15.4395 11.8457V3.5332C15.4395 3.20529 15.1736 2.93945 14.8457 2.93945Z" fill="white"/>
<path fill-rule="evenodd" clip-rule="evenodd" d="M9.7002 2.93945C10.0281 2.93945 10.2939 3.20529 10.2939 3.5332V6.30404C10.2939 6.63195 10.0281 6.89779 9.7002 6.89779C9.37229 6.89779 9.10645 6.63195 9.10645 6.30404V3.5332C9.10645 3.20529 9.37229 2.93945 9.7002 2.93945ZM9.7002 13.2311C9.37229 13.2311 9.10645 13.497 9.10645 13.8249V16.5957C9.10645 16.9236 9.37229 17.1895 9.7002 17.1895C10.0281 17.1895 10.2939 16.9236 10.2939 16.5957V13.8249C10.2939 13.497 10.0281 13.2311 9.7002 13.2311Z" fill="white"/>
<path d="M16.2308 15.8041C16.2308 15.039 15.6105 14.4187 14.8454 14.4187C14.0802 14.4187 13.46 15.039 13.46 15.8041C13.46 16.5693 14.0802 17.1895 14.8454 17.1895C15.6105 17.1895 16.2308 16.5693 16.2308 15.8041Z" stroke="white" stroke-width="1.5"/>
</svg>
