<svg width="22" height="22" viewBox="0 0 22 22" fill="none" xmlns="http://www.w3.org/2000/svg">
<g opacity="0.9">
<path d="M5.50033 12.8334C6.51285 12.8334 7.33366 12.0126 7.33366 11.0001C7.33366 9.98756 6.51285 9.16675 5.50033 9.16675C4.4878 9.16675 3.66699 9.98756 3.66699 11.0001C3.66699 12.0126 4.4878 12.8334 5.50033 12.8334Z" stroke="#3C4543" stroke-width="1.5"/>
<path d="M15.5833 6.41667C16.5959 6.41667 17.4167 5.59586 17.4167 4.58333C17.4167 3.57081 16.5959 2.75 15.5833 2.75C14.5708 2.75 13.75 3.57081 13.75 4.58333C13.75 5.59586 14.5708 6.41667 15.5833 6.41667Z" stroke="#3C4543" stroke-width="1.5"/>
<path d="M6.98926 9.71038L13.7254 5.82129" stroke="#3C4543" stroke-width="1.5"/>
<path d="M15.5833 15.5833C16.5959 15.5833 17.4167 16.4041 17.4167 17.4167C17.4167 18.4292 16.5959 19.25 15.5833 19.25C14.5708 19.25 13.75 18.4292 13.75 17.4167C13.75 16.4041 14.5708 15.5833 15.5833 15.5833Z" stroke="#3C4543" stroke-width="1.5"/>
<path d="M6.98926 12.512L13.7253 16.401" stroke="#3C4543" stroke-width="1.5"/>
</g>
</svg>
